HIERARCHY
ROOT Hips
{
	OFFSET -3.958830 18.904000 13.208200
	CHANNELS 6 Xposition Yposition Zposition Zrotation Yrotation Xrotation 
	JOINT LHipJoint
	{
		OFFSET 0.000000 0.000000 0.000000
		CHANNELS 3 Zrotation Yrotation Xrotation
		JOINT LeftUpLeg
		{
			OFFSET 1.800000 -1.400000 0.085000
			CHANNELS 3 Zrotation Yrotation Xrotation
			JOINT LeftLeg
			{
				OFFSET 2.215000 -6.000000 0.000000
				CHANNELS 3 Zrotation Yrotation Xrotation
				JOINT LeftFoot
				{
					OFFSET 2.500000 -6.900000 0.000000
					CHANNELS 3 Zrotation Yrotation Xrotation
					JOINT LeftToeBase
					{
						OFFSET 0.200000 -0.500000 1.950000
						CHANNELS 3 Zrotation Yrotation Xrotation
						End Site
						{
							OFFSET 0.000000 0.000000 0.000000
						}
					}
				}
			}
		}
	}
	JOINT RHipJoint
	{
		OFFSET 0.000000 0.000000 0.000000
		CHANNELS 3 Zrotation Yrotation Xrotation
		JOINT RightUpLeg
		{
			OFFSET -1.800000 -1.400000 0.085000
			CHANNELS 3 Zrotation Yrotation Xrotation
			JOINT RightLeg
			{
				OFFSET -2.215000 -6.000000 0.000000
				CHANNELS 3 Zrotation Yrotation Xrotation
				JOINT RightFoot
				{
					OFFSET -2.500000 -6.900000 0.000000
					CHANNELS 3 Zrotation Yrotation Xrotation
					JOINT RightToeBase
					{
						OFFSET -0.200000 -0.500000 1.950000
						CHANNELS 3 Zrotation Yrotation Xrotation
						End Site
						{
							OFFSET 0.000000 0.000000 0.000000
						}
					}
				}
			}
		}
	}
	JOINT LowerBack
	{
		OFFSET 0.000000 0.000000 0.000000
		CHANNELS 3 Zrotation Yrotation Xrotation
		JOINT Spine
		{
			OFFSET -0.087000 1.940000 -0.288900
			CHANNELS 3 Zrotation Yrotation Xrotation
			JOINT Spine1
			{
				OFFSET 0.000000 1.950000 0.060000
				CHANNELS 3 Zrotation Yrotation Xrotation
				JOINT Neck
				{
					OFFSET 0.000000 0.000000 0.000000
					CHANNELS 3 Zrotation Yrotation Xrotation
					JOINT Neck1
					{
						OFFSET 0.000000 1.600000 0.340000
						CHANNELS 3 Zrotation Yrotation Xrotation
						JOINT Head
						{
							OFFSET 0.000000 1.667000 -0.240000
							CHANNELS 3 Zrotation Yrotation Xrotation
							End Site
							{
								OFFSET 0.000000 0.000000 0.000000
							}
						}
					}
				}
				JOINT LeftShoulder
				{
					OFFSET 0.000000 0.000000 0.000000
					CHANNELS 3 Zrotation Yrotation Xrotation
					JOINT LeftArm
					{
						OFFSET 2.700000 1.550000 -0.730000
						CHANNELS 3 Zrotation Yrotation Xrotation
						JOINT LeftForeArm
						{
							OFFSET 5.450000 0.000000 0.000000
							CHANNELS 3 Zrotation Yrotation Xrotation
							JOINT LeftHand
							{
								OFFSET 3.450000 0.000000 0.000000
								CHANNELS 3 Zrotation Yrotation Xrotation
								JOINT LeftHandIndex1
								{
									OFFSET 0.750000 0.000000 0.000000
									CHANNELS 3 Zrotation Yrotation Xrotation
									End Site
									{
										OFFSET 0.000000 0.000000 0.000000
									}
								}
							}
						}
					}
				}
				JOINT RightShoulder
				{
					OFFSET 0.000000 0.000000 0.000000
					CHANNELS 3 Zrotation Yrotation Xrotation
					JOINT RightArm
					{
						OFFSET -2.700000 1.550000 -0.730000
						CHANNELS 3 Zrotation Yrotation Xrotation
						JOINT RightForeArm
						{
							OFFSET -5.450000 0.000000 0.000000
							CHANNELS 3 Zrotation Yrotation Xrotation
							JOINT RightHand
							{
								OFFSET -3.450000 0.000000 0.000000
								CHANNELS 3 Zrotation Yrotation Xrotation
								JOINT RightHandIndex1
								{
									OFFSET -0.750000 0.000000 0.000000
									CHANNELS 3 Zrotation Yrotation Xrotation
									End Site
									{
										OFFSET 0.000000 0.000000 0.000000
									}
								}
							}
						}
					}
				}
			}
		}
	}
}
MOTION
Frames: 7
Frame Time: 0.016667
0.095260 15.212610 -0.955050 -5.629898 -18.022021 -0.265208 -15.468657 12.289391 2.646194 -0.446243 -1.452530 10.596000 -11.545966 18.110481 47.640723 1.552548 11.134743 1.098268 0.657890 0.227920 0.693440 18.572652 -7.014494 6.115687 -3.700582 18.462795 -59.363204 14.807058 -20.263323 67.298186 -2.290019 -11.768042 0.671844 -0.003310 -0.018490 0.340300 -3.785468 -4.328112 -9.021653 17.627609 -11.347240 39.418476 -3.168320 -7.788511 8.671470 1.403849 -10.154710 -11.182976 -25.097736 11.223273 34.976693 -15.772970 9.088450 -12.880110 -6.891379 0.886224 3.023737 -4.336088 10.756657 -1.672571 -65.274894 -68.440170 40.973388 -3.606651 3.588679 0.602020 0.007250 0.204320 0.256840 4.622064 3.917920 6.491578 27.948498 -10.085103 -11.033142 55.613312 71.504616 31.506187 1.982199 -2.136229 0.009370 0.063210 -0.275130 -0.255810 
0.102910 15.255650 -0.944410 -5.351905 -17.572579 -0.054501 -15.453481 12.331938 2.638463 -0.565237 -1.430031 10.376098 -11.048061 17.555779 47.106354 1.493092 10.971248 1.148104 0.638420 0.173380 0.697060 18.575752 -7.071008 6.084819 -3.675289 18.072475 -59.143055 14.392052 -19.846383 66.793696 -2.229225 -11.610713 0.689934 -0.023010 -0.025850 0.341340 -3.794915 -4.322485 -9.000618 17.954807 -11.494127 38.505847 -3.422316 -7.839911 8.759451 1.692074 -9.947504 -11.636478 -25.093600 11.062946 36.048767 -15.813210 9.084060 -11.185270 -7.042540 -0.118340 3.211753 -4.522748 10.439333 -1.908571 -64.501968 -65.021748 38.253334 -3.548421 3.637450 0.623250 0.001580 0.193920 0.247710 4.251932 4.717918 7.123043 28.933800 -10.654753 -11.275045 58.546958 71.689243 33.061462 2.023872 -2.119442 -0.012760 0.036930 -0.273110 -0.273810 
0.112030 15.347650 -0.903480 -5.222532 -16.683992 0.344705 -15.413055 12.427661 2.608412 -0.698215 -1.342248 10.058556 -9.680743 16.396922 46.419031 1.398544 10.608985 1.221615 0.658480 0.182490 0.688820 18.591157 -7.225784 5.973905 -2.808510 17.379764 -58.073780 12.628862 -18.418892 65.724964 -2.093894 -11.148634 0.783906 -0.023230 -0.060710 0.358700 -3.846812 -4.278658 -8.892731 18.820652 -12.099643 37.029430 -3.848799 -8.239562 8.545709 1.862165 -10.118810 -12.087891 -25.886805 11.647000 36.207328 -15.130430 8.985860 -10.139250 -7.254926 -0.988671 3.573078 -6.151975 9.960398 -2.383815 -65.750584 -59.587550 35.296666 -3.467895 3.741135 0.622750 -0.016730 0.191880 0.242090 4.225616 5.479604 7.494471 29.731567 -10.640858 -11.351539 63.152923 70.201000 34.592693 2.076301 -2.116004 0.015510 -0.027290 -0.276450 -0.275570 
0.114750 15.465060 -0.839260 -5.159522 -15.210125 1.371310 -15.361965 12.582158 2.559400 -0.696664 -1.257601 9.433861 -7.859913 14.797892 45.146291 1.265995 10.058208 1.342172 0.660140 0.191430 0.677810 18.605500 -7.437902 5.806678 -1.648608 16.306362 -56.696927 10.517743 -16.504366 63.405081 -1.885592 -10.376696 0.971655 -0.037780 -0.099350 0.372560 -3.900370 -4.258006 -8.731603 20.046118 -12.770801 34.054122 -4.371797 -8.762614 8.390688 2.195077 -10.177658 -12.553862 -26.656995 12.598308 36.768833 -15.266540 9.566310 -9.728390 -7.398926 -1.891609 4.023261 -9.325569 8.723711 -3.019779 -64.915871 -53.266076 30.209401 -3.409409 3.775585 0.613700 -0.033140 0.200750 0.219960 3.777584 6.152060 7.742387 32.089686 -9.924451 -11.887642 65.270802 67.589767 33.942555 2.098720 -2.119125 0.054600 -0.080440 -0.265460 -0.273230 
0.119620 15.631920 -0.788150 -4.735270 -13.892998 2.210728 -15.296329 12.723491 2.563703 -1.146586 -1.138150 8.554736 -6.337637 13.388220 43.866702 1.177974 9.585599 1.504604 0.624960 0.142660 0.634070 18.623273 -7.736368 5.563578 -0.168549 14.982793 -54.664651 7.841718 -13.911915 59.852773 -1.585282 -9.310624 1.272750 -0.067190 -0.053040 0.377780 -3.983138 -4.133928 -8.546524 20.973530 -13.409579 31.863151 -5.272489 -9.252485 7.095100 2.233211 -10.266017 -12.809248 -26.605118 13.242991 35.633637 -13.864490 10.118130 -7.276760 -8.069701 -2.859062 4.464363 -12.135847 8.012772 -3.577886 -63.854693 -46.879557 25.058453 -3.405611 3.780006 0.579950 -0.007880 0.162440 0.234110 4.420072 6.899307 7.826050 35.175025 -9.197379 -12.609470 64.610122 64.376760 31.318560 2.103406 -2.150756 0.051820 -0.102470 -0.258220 -0.253290 
0.121040 15.824980 -0.724120 -3.532647 -12.888850 3.449978 -15.257981 12.899629 2.626531 -2.239780 -0.999529 6.722812 -5.035044 12.136880 42.798201 1.058978 9.123575 1.681425 0.577930 0.069480 0.628700 18.609141 -8.011034 5.299272 0.754970 13.461354 -52.774376 5.031273 -11.183627 55.362648 -1.254231 -8.071948 1.655770 -0.091230 -0.023150 0.332050 -3.981872 -4.131436 -8.403214 20.650127 -13.322387 28.560223 -5.823278 -9.467362 6.205274 2.600191 -10.065202 -13.083848 -26.367794 13.644126 36.291157 -14.358210 11.437600 -4.597970 -8.889860 -3.774058 4.959889 -16.376317 7.530789 -4.287259 -61.257673 -40.173308 19.208821 -3.386704 3.679354 0.589480 0.006260 0.129850 0.247700 4.484983 7.765907 7.819407 39.518958 -7.273607 -13.485725 59.135681 59.601453 25.416188 2.097570 -2.133570 -0.012500 -0.083080 -0.274360 -0.268160 
0.130560 16.033840 -0.662210 -2.817256 -12.960052 5.433766 -15.202903 12.961211 2.660345 -3.037891 -0.966759 3.669159 -4.887182 11.704876 42.267521 0.976841 8.861440 1.771249 0.513610 -0.004820 0.566310 18.627793 -8.253482 5.100845 2.038962 12.665999 -51.019313 2.507569 -8.469858 49.491297 -0.895528 -6.667194 2.107317 -0.119510 0.049360 0.330130 -4.075542 -3.927387 -8.235705 21.112814 -12.830309 24.917099 -6.420272 -9.095791 5.087105 2.509082 -10.195603 -12.865878 -26.107952 14.160486 35.163062 -13.568030 12.253240 -2.172060 -9.651552 -3.836203 5.107578 -22.135400 6.546928 -4.912003 -57.175413 -33.879868 13.675567 -3.449809 3.627732 0.549970 0.059320 0.066220 0.247130 5.310969 8.050797 7.350194 43.464009 -4.980401 -13.818180 51.976517 54.724977 19.438460 2.098658 -2.080842 -0.041280 -0.085420 -0.236800 -0.259100 
